<mxfile host="app.diagrams.net" agent="Mozilla/5.0 (Windows NT 10.0; Win64; x64) AppleWebKit/537.36 (KHTML, like Gecko) Chrome/140.0.0.0 Safari/537.36 Edg/140.0.0.0" version="28.2.4">
  <diagram name="Página-1" id="USP4nDcfbXZvoKr7NAUu">
    <mxGraphModel dx="394" dy="218" grid="1" gridSize="10" guides="1" tooltips="1" connect="1" arrows="1" fold="1" page="1" pageScale="1" pageWidth="827" pageHeight="1169" math="0" shadow="0">
      <root>
        <mxCell id="0" />
        <mxCell id="1" parent="0" />
        <mxCell id="XHu-yT-uc0XwkUjghm2G-5" value="" style="edgeStyle=orthogonalEdgeStyle;rounded=0;orthogonalLoop=1;jettySize=auto;html=1;" edge="1" parent="1" source="XHu-yT-uc0XwkUjghm2G-1" target="XHu-yT-uc0XwkUjghm2G-4">
          <mxGeometry relative="1" as="geometry" />
        </mxCell>
        <mxCell id="XHu-yT-uc0XwkUjghm2G-1" value="Iniciar" style="ellipse;whiteSpace=wrap;html=1;" vertex="1" parent="1">
          <mxGeometry x="85" y="10" width="120" height="30" as="geometry" />
        </mxCell>
        <mxCell id="XHu-yT-uc0XwkUjghm2G-8" value="" style="edgeStyle=orthogonalEdgeStyle;rounded=0;orthogonalLoop=1;jettySize=auto;html=1;" edge="1" parent="1" source="XHu-yT-uc0XwkUjghm2G-2" target="XHu-yT-uc0XwkUjghm2G-7">
          <mxGeometry relative="1" as="geometry">
            <Array as="points">
              <mxPoint x="145" y="140" />
              <mxPoint x="68" y="140" />
            </Array>
          </mxGeometry>
        </mxCell>
        <mxCell id="XHu-yT-uc0XwkUjghm2G-2" value="Escrever &quot;Quantos números queres somar?&quot;" style="shape=parallelogram;perimeter=parallelogramPerimeter;whiteSpace=wrap;html=1;fixedSize=1;" vertex="1" parent="1">
          <mxGeometry x="10" y="100" width="270" height="30" as="geometry" />
        </mxCell>
        <mxCell id="XHu-yT-uc0XwkUjghm2G-6" value="" style="edgeStyle=orthogonalEdgeStyle;rounded=0;orthogonalLoop=1;jettySize=auto;html=1;" edge="1" parent="1" source="XHu-yT-uc0XwkUjghm2G-4" target="XHu-yT-uc0XwkUjghm2G-2">
          <mxGeometry relative="1" as="geometry" />
        </mxCell>
        <mxCell id="XHu-yT-uc0XwkUjghm2G-4" value="LER n=0; All_n=0; times=0; tmp_n = 0;" style="shape=parallelogram;perimeter=parallelogramPerimeter;whiteSpace=wrap;html=1;fixedSize=1;" vertex="1" parent="1">
          <mxGeometry x="23.28" y="60" width="243.43" height="20" as="geometry" />
        </mxCell>
        <mxCell id="XHu-yT-uc0XwkUjghm2G-10" value="" style="edgeStyle=orthogonalEdgeStyle;rounded=0;orthogonalLoop=1;jettySize=auto;html=1;" edge="1" parent="1" source="XHu-yT-uc0XwkUjghm2G-7" target="XHu-yT-uc0XwkUjghm2G-9">
          <mxGeometry relative="1" as="geometry" />
        </mxCell>
        <mxCell id="XHu-yT-uc0XwkUjghm2G-7" value="LER All_n" style="shape=parallelogram;perimeter=parallelogramPerimeter;whiteSpace=wrap;html=1;fixedSize=1;" vertex="1" parent="1">
          <mxGeometry x="10" y="160" width="115" height="30" as="geometry" />
        </mxCell>
        <mxCell id="XHu-yT-uc0XwkUjghm2G-24" style="edgeStyle=orthogonalEdgeStyle;rounded=0;orthogonalLoop=1;jettySize=auto;html=1;entryX=1;entryY=0.5;entryDx=0;entryDy=0;" edge="1" parent="1" source="XHu-yT-uc0XwkUjghm2G-9" target="XHu-yT-uc0XwkUjghm2G-22">
          <mxGeometry relative="1" as="geometry" />
        </mxCell>
        <mxCell id="XHu-yT-uc0XwkUjghm2G-9" value="Escrever &quot;Diz o número&quot; &amp;amp;&amp;amp; LER tmp_n" style="shape=parallelogram;perimeter=parallelogramPerimeter;whiteSpace=wrap;html=1;fixedSize=1;" vertex="1" parent="1">
          <mxGeometry x="130" y="160" width="270" height="30" as="geometry" />
        </mxCell>
        <mxCell id="XHu-yT-uc0XwkUjghm2G-14" style="edgeStyle=orthogonalEdgeStyle;rounded=0;orthogonalLoop=1;jettySize=auto;html=1;entryX=1;entryY=0.5;entryDx=0;entryDy=0;" edge="1" parent="1" source="XHu-yT-uc0XwkUjghm2G-11" target="XHu-yT-uc0XwkUjghm2G-9">
          <mxGeometry relative="1" as="geometry">
            <mxPoint x="320" y="170" as="targetPoint" />
            <Array as="points">
              <mxPoint x="410" y="300" />
              <mxPoint x="410" y="175" />
            </Array>
          </mxGeometry>
        </mxCell>
        <mxCell id="XHu-yT-uc0XwkUjghm2G-16" value="Não" style="edgeLabel;html=1;align=center;verticalAlign=middle;resizable=0;points=[];" vertex="1" connectable="0" parent="XHu-yT-uc0XwkUjghm2G-14">
          <mxGeometry x="-0.5565" y="1" relative="1" as="geometry">
            <mxPoint as="offset" />
          </mxGeometry>
        </mxCell>
        <mxCell id="XHu-yT-uc0XwkUjghm2G-32" style="edgeStyle=orthogonalEdgeStyle;rounded=0;orthogonalLoop=1;jettySize=auto;html=1;entryX=0.5;entryY=0;entryDx=0;entryDy=0;" edge="1" parent="1" source="XHu-yT-uc0XwkUjghm2G-11">
          <mxGeometry relative="1" as="geometry">
            <mxPoint x="110" y="380" as="targetPoint" />
          </mxGeometry>
        </mxCell>
        <mxCell id="XHu-yT-uc0XwkUjghm2G-33" value="Sim" style="edgeLabel;html=1;align=center;verticalAlign=middle;resizable=0;points=[];" vertex="1" connectable="0" parent="XHu-yT-uc0XwkUjghm2G-32">
          <mxGeometry x="-0.2167" relative="1" as="geometry">
            <mxPoint as="offset" />
          </mxGeometry>
        </mxCell>
        <mxCell id="XHu-yT-uc0XwkUjghm2G-11" value="times &amp;lt; All_n" style="rhombus;whiteSpace=wrap;html=1;" vertex="1" parent="1">
          <mxGeometry x="70" y="260" width="80" height="80" as="geometry" />
        </mxCell>
        <mxCell id="XHu-yT-uc0XwkUjghm2G-23" value="" style="edgeStyle=orthogonalEdgeStyle;rounded=0;orthogonalLoop=1;jettySize=auto;html=1;" edge="1" parent="1" source="XHu-yT-uc0XwkUjghm2G-22" target="XHu-yT-uc0XwkUjghm2G-11">
          <mxGeometry relative="1" as="geometry" />
        </mxCell>
        <mxCell id="XHu-yT-uc0XwkUjghm2G-22" value="n += tmp_n;&lt;div&gt;times++;&lt;/div&gt;" style="rounded=0;whiteSpace=wrap;html=1;" vertex="1" parent="1">
          <mxGeometry x="50" y="210" width="120" height="30" as="geometry" />
        </mxCell>
        <mxCell id="XHu-yT-uc0XwkUjghm2G-28" value="" style="edgeStyle=orthogonalEdgeStyle;rounded=0;orthogonalLoop=1;jettySize=auto;html=1;" edge="1" parent="1" target="XHu-yT-uc0XwkUjghm2G-27">
          <mxGeometry relative="1" as="geometry">
            <mxPoint x="110" y="410" as="sourcePoint" />
          </mxGeometry>
        </mxCell>
        <mxCell id="XHu-yT-uc0XwkUjghm2G-26" value="Escrever &quot;o resultado foi: &quot; n" style="shape=parallelogram;perimeter=parallelogramPerimeter;whiteSpace=wrap;html=1;fixedSize=1;" vertex="1" parent="1">
          <mxGeometry x="15" y="380" width="190" height="30" as="geometry" />
        </mxCell>
        <mxCell id="XHu-yT-uc0XwkUjghm2G-27" value="Fim" style="ellipse;whiteSpace=wrap;html=1;" vertex="1" parent="1">
          <mxGeometry x="50" y="430" width="120" height="30" as="geometry" />
        </mxCell>
      </root>
    </mxGraphModel>
  </diagram>
</mxfile>
